<?xml version="1.0" encoding="UTF-8"?>
<svg id="Capa_1" data-name="Capa 1" xmlns="http://www.w3.org/2000/svg" viewBox="0 0 400 400">
  <defs>
    <style>
      .cls-1 {
        fill: #0c356a;
      }

      .cls-2 {
        fill: #fcb800;
      }
    </style>
  </defs>
  <path class="cls-2" d="m240.85,121.59h-81.69c-9.66,0-17.54,7.95-17.18,17.58.07,1.93.15,3.87.26,5.76h-38.51c-4.85,0-8.75,3.9-8.75,8.75,0,33.77,12.22,57.26,28.63,73.2,16.16,15.72,35.85,23.63,50.37,27.64,8.53,2.37,14.37,9.48,14.37,16.63,0,7.62-6.2,13.82-13.82,13.82h-9.52c-6.46,0-11.67,5.22-11.67,11.67s5.22,11.67,11.67,11.67h70.02c6.46,0,11.67-5.22,11.67-11.67s-5.22-11.67-11.67-11.67h-9.52c-7.62,0-13.82-6.2-13.82-13.82,0-7.15,5.8-14.3,14.37-16.63,14.55-4.01,34.25-11.93,50.4-27.64,16.38-15.94,28.59-39.43,28.59-73.2,0-4.85-3.9-8.75-8.75-8.75h-38.51c.11-1.9.18-3.79.26-5.76.36-9.63-7.51-17.58-17.18-17.58Zm-128.05,40.85h30.78c3.32,32.86,10.65,54.82,18.93,69.51-9.08-4.01-18.53-9.66-26.7-17.62-11.67-11.34-21.15-27.72-22.98-51.9h-.04Zm151.43,51.9c-8.17,7.95-17.62,13.6-26.7,17.62,8.28-14.7,15.61-36.65,18.93-69.51h30.78c-1.86,24.18-11.34,40.56-22.98,51.9h-.04Z"/>
  <path class="cls-1" d="m350.1,199.99c-.28-62.59-39.93-119.6-98.79-141.19-59.07-21.67-127.6-2.9-167.45,45.73-39.9,48.7-45.33,119.13-12.64,173.11,32.65,53.94,97.07,82.04,158.84,69.55,60.41-12.22,108.69-62.58,118.17-123.5,1.22-7.85,1.85-15.76,1.88-23.7.02-4.67-7.23-4.67-7.25,0-.27,59.42-37.96,114.12-94.07,134.42-56.36,20.39-120.63,2.84-158.98-43.11-38.55-46.18-43.43-113.9-12.32-165.3,30.89-51.02,92.12-78.08,150.65-66.22,57.97,11.75,103.64,59.39,113,117.78,1.19,7.42,1.69,14.92,1.73,22.43.02,4.67,7.27,4.68,7.25,0Z"/>
</svg>