<?xml version="1.0" encoding="UTF-8"?>
<svg id="Capa_1" data-name="Capa 1" xmlns="http://www.w3.org/2000/svg" viewBox="0 0 400 400">
  <defs>
    <style>
      .cls-1 {
        fill: #810377;
      }

      .cls-2 {
        fill: #0c356a;
      }
    </style>
  </defs>
  <path class="cls-1" d="m258.3,234.22l-29.15-1.95c-1.69-.1-3.35.36-4.71,1.36-1.36,1.01-2.34,2.4-2.73,4.06l-7.15,28.34c-4.68,1.04-9.55,1.56-14.56,1.56s-9.85-.55-14.56-1.56l-7.15-28.34c-.42-1.62-1.4-3.05-2.73-4.06-1.33-1.01-3.02-1.46-4.71-1.36l-29.15,1.95c-4.84-8.25-8.03-17.65-8.97-27.66l24.7-15.57c1.43-.91,2.47-2.27,2.99-3.87s.45-3.31-.16-4.87l-10.82-27.1c6.47-7.28,14.49-13.16,23.53-17.13l22.46,18.72c1.3,1.07,2.92,1.66,4.58,1.66s3.31-.58,4.58-1.66l22.46-18.72c9.03,3.96,17.06,9.85,23.53,17.13l-10.85,27.1c-.62,1.56-.68,3.28-.16,4.87s1.59,2.96,2.99,3.87l24.73,15.57c-.97,10.01-4.13,19.4-8.97,27.66h0Zm-58.3-101.82h.29-.58.29Zm-64.77,48.16c.29-.97.62-1.98.94-2.96l-.94,2.96Zm24.47,73.71l1.23.88c-.42-.29-.81-.58-1.23-.88Zm80.63-.03c-.42.32-.88.65-1.3.94l1.3-.94Zm24.44-73.64l-.97-2.99c.36.97.68,1.98.97,2.99Zm-64.77,102.6c45.95,0,83.19-37.25,83.19-83.19s-37.25-83.19-83.19-83.19-83.19,37.25-83.19,83.19,37.25,83.19,83.19,83.19Zm4.58-105.85c-2.73-1.98-6.43-1.98-9.16,0l-15.57,11.28c-2.73,1.98-3.87,5.49-2.83,8.71l5.95,18.3c1.04,3.22,4.03,5.39,7.41,5.39h19.24c3.38,0,6.37-2.18,7.41-5.39l5.95-18.3c1.04-3.22-.1-6.73-2.83-8.71l-15.57-11.31v.03Z"/>
  <path class="cls-2" d="m339.07,199.99c-.26-57.99-37-110.81-91.53-130.81-54.73-20.07-118.22-2.69-155.14,42.37-36.97,45.12-41.99,110.37-11.71,160.39,30.25,49.97,89.94,76.01,147.16,64.44,55.96-11.32,100.7-57.98,109.48-114.42,1.13-7.27,1.71-14.6,1.74-21.96.02-4.32-6.7-4.33-6.72,0-.25,55.05-35.17,105.73-87.16,124.53-52.22,18.89-111.76,2.63-147.3-39.94-35.72-42.79-40.24-105.53-11.41-153.15,28.62-47.27,85.35-72.34,139.57-61.35,53.71,10.88,96.02,55.03,104.69,109.12,1.1,6.87,1.57,13.82,1.6,20.78.02,4.32,6.74,4.33,6.72,0Z"/>
</svg>