<?xml version="1.0" encoding="UTF-8"?>
<svg id="Capa_1" data-name="Capa 1" xmlns="http://www.w3.org/2000/svg" viewBox="0 0 400 400">
  <defs>
    <style>
      .cls-1, .cls-2 {
        fill: #e8244f;
      }

      .cls-3 {
        fill: #0c356a;
      }

      .cls-2 {
        font-family: MyriadPro-Bold, 'Myriad Pro';
        font-size: 78.21px;
        font-weight: 700;
      }
    </style>
  </defs>
  <g>
    <path class="cls-1" d="m159.12,122.32c0-4.77-3.84-8.61-8.61-8.61s-8.61,3.84-8.61,8.61v14.35h-14.35c-12.66,0-22.95,10.29-22.95,22.95v114.76c0,12.66,10.29,22.95,22.95,22.95h114.76c12.66,0,22.95-10.29,22.95-22.95v-114.76c0-12.66-10.29-22.95-22.95-22.95h-14.35v-14.35c0-4.77-3.84-8.61-8.61-8.61s-8.61,3.84-8.61,8.61v14.35h-51.64v-14.35Zm-37.3,60.25h126.24v91.81c0,3.16-2.58,5.74-5.74,5.74h-114.76c-3.16,0-5.74-2.58-5.74-5.74v-91.81Z"/>
    <text class="cls-2" transform="translate(162.2 259.43)"><tspan x="0" y="0">1</tspan></text>
  </g>
  <path class="cls-3" d="m329.97,205.2c-.28-60.47-38.58-115.56-95.45-136.42-57.08-20.93-123.29-2.81-161.79,44.18-38.55,47.05-43.79,115.1-12.22,167.26,31.55,52.11,93.79,79.27,153.47,67.2,58.36-11.81,105.01-60.46,114.18-119.32,1.18-7.59,1.78-15.22,1.82-22.9.02-4.51-6.99-4.52-7.01,0-.26,57.41-36.68,110.26-90.89,129.87-54.45,19.7-116.55,2.74-153.61-41.65-37.25-44.62-41.96-110.05-11.9-159.71,29.84-49.29,89-75.44,145.55-63.98,56.01,11.35,100.14,57.38,109.18,113.8,1.15,7.17,1.64,14.41,1.67,21.67.02,4.51,7.03,4.52,7.01,0Z"/>
</svg>